<svg width="248" height="248" viewBox="0 0 48 48" fill="none" xmlns="http://www.w3.org/2000/svg">
<circle cx="24" cy="24" r="24" fill="#F4D150"/>
<mask id="mask0_19_1888" style="mask-type:alpha" maskUnits="userSpaceOnUse" x="0" y="0" width="48" height="48">
<circle cx="24" cy="24" r="24" fill="#FFEDEF"/>
</mask>
<g mask="url(#mask0_19_1888)">
<path d="M30.9896 46.6001C29.1706 44.0738 27.7475 37.9264 27.579 35.4843L18.9264 31.758L15.3264 46.6001H30.9896Z" fill="#FC909F" stroke="black" stroke-width="0.505263"/>
<mask id="mask1_19_1888" style="mask-type:alpha" maskUnits="userSpaceOnUse" x="15" y="31" width="16" height="16">
<path d="M30.9896 46.6001C29.1706 44.0738 27.7475 37.9264 27.579 35.4843L18.9264 31.758L15.3264 46.6001H30.9896Z" fill="#FFEDEF"/>
</mask>
<g mask="url(#mask1_19_1888)">
<ellipse cx="27.0317" cy="31.958" rx="7.45263" ry="6.82105" fill="black"/>
</g>
<g clip-path="url(#clip0_19_1888)">
<path d="M30.8211 45.7896C29.0022 43.2632 27.579 38.379 27.4106 35.9369L18.758 32.2106L15.158 45.7896H30.8211Z" fill="#F9C9B6" stroke="black" stroke-width="0.505263"/>
<mask id="mask2_19_1888" style="mask-type:alpha" maskUnits="userSpaceOnUse" x="15" y="32" width="16" height="16">
<path d="M30.8211 47.0527C29.0022 44.5264 27.579 38.379 27.4106 35.9369L18.758 32.2106L15.158 47.0527H30.8211Z" fill="#F9C9B6"/>
</mask>
<g mask="url(#mask2_19_1888)">
<g style="mix-blend-mode:multiply">
<ellipse cx="27.0317" cy="31.958" rx="7.45263" ry="6.82105" fill="black"/>
</g>
</g>
<mask id="path-9-inside-1_19_1888" fill="white">
<path fill-rule="evenodd" clip-rule="evenodd" d="M34.5964 24.4952C34.5929 24.4805 34.5894 24.4657 34.5859 24.451C34.5823 24.4362 34.5788 24.4215 34.5752 24.4068L32.5041 15.7626C32.5021 15.754 32.5 15.7454 32.498 15.7368C32.4959 15.7282 32.4938 15.7196 32.4917 15.711L32.4826 15.6728L32.4824 15.6728C31.1917 10.4377 25.9147 7.21871 20.6632 8.47692C15.4117 9.73513 12.1663 14.996 13.3882 20.2476L13.3879 20.2477L15.5342 29.2057L15.536 29.2053C16.8753 34.3722 22.1132 37.5347 27.326 36.2858C32.5388 35.0368 35.7749 29.844 34.6273 24.6312L34.6289 24.6308L34.5964 24.4952Z"/>
</mask>
<path fill-rule="evenodd" clip-rule="evenodd" d="M34.5964 24.4952C34.5929 24.4805 34.5894 24.4657 34.5859 24.451C34.5823 24.4362 34.5788 24.4215 34.5752 24.4068L32.5041 15.7626C32.5021 15.754 32.5 15.7454 32.498 15.7368C32.4959 15.7282 32.4938 15.7196 32.4917 15.711L32.4826 15.6728L32.4824 15.6728C31.1917 10.4377 25.9147 7.21871 20.6632 8.47692C15.4117 9.73513 12.1663 14.996 13.3882 20.2476L13.3879 20.2477L15.5342 29.2057L15.536 29.2053C16.8753 34.3722 22.1132 37.5347 27.326 36.2858C32.5388 35.0368 35.7749 29.844 34.6273 24.6312L34.6289 24.6308L34.5964 24.4952Z" fill="#F9C9B6"/>
<path d="M34.5964 24.4952L34.1045 24.6107L34.105 24.6129L34.5964 24.4952ZM34.5752 24.4068L34.0838 24.5245L34.0844 24.5268L34.5752 24.4068ZM32.5041 15.7626L32.0124 15.879L32.0128 15.8803L32.5041 15.7626ZM32.498 15.7368L32.0066 15.8545L32.0066 15.8546L32.498 15.7368ZM32.4917 15.711L32.0004 15.8287L32.0007 15.83L32.4917 15.711ZM32.4826 15.6728L32.9739 15.555L32.8563 15.0639L32.3651 15.1814L32.4826 15.6728ZM32.4824 15.6728L31.9918 15.7938L32.1119 16.2809L32.5999 16.1642L32.4824 15.6728ZM20.6632 8.47692L20.5455 7.98556L20.6632 8.47692ZM13.3882 20.2476L13.5051 20.7392L13.9942 20.6229L13.8803 20.1331L13.3882 20.2476ZM13.3879 20.2477L13.271 19.7561L12.7787 19.8732L12.8966 20.3654L13.3879 20.2477ZM15.5342 29.2057L15.0428 29.3235L15.1606 29.8148L15.6519 29.6971L15.5342 29.2057ZM15.536 29.2053L16.0251 29.0785L15.9006 28.5984L15.4182 28.714L15.536 29.2053ZM27.326 36.2858L27.4437 36.7771H27.4437L27.326 36.2858ZM34.6273 24.6312L34.5094 24.1399L34.0272 24.2555L34.1339 24.7398L34.6273 24.6312ZM34.6289 24.6308L34.7467 25.1221L35.2379 25.0043L35.1202 24.5131L34.6289 24.6308ZM35.0883 24.3798C35.0846 24.3642 35.0809 24.3487 35.0772 24.3333L34.0945 24.5687C34.0979 24.5827 34.1012 24.5967 34.1045 24.6107L35.0883 24.3798ZM35.0772 24.3333C35.0735 24.3178 35.0698 24.3023 35.066 24.2868L34.0844 24.5268C34.0878 24.5407 34.0912 24.5547 34.0945 24.5687L35.0772 24.3333ZM32.0128 15.8803L34.0838 24.5245L35.0665 24.2891L32.9955 15.6449L32.0128 15.8803ZM32.9958 15.6462C32.9936 15.6372 32.9915 15.6281 32.9893 15.619L32.0066 15.8546C32.0086 15.8627 32.0105 15.8708 32.0125 15.879L32.9958 15.6462ZM32.9893 15.6191C32.9872 15.61 32.985 15.601 32.9828 15.5919L32.0007 15.83C32.0027 15.8382 32.0046 15.8463 32.0066 15.8545L32.9893 15.6191ZM31.9912 15.7905L32.0004 15.8287L32.9831 15.5933L32.9739 15.555L31.9912 15.7905ZM32.5999 16.1642L32.6001 16.1642L32.3651 15.1814L32.3649 15.1814L32.5999 16.1642ZM32.973 15.5519C31.6158 10.0472 26.0672 6.66259 20.5455 7.98556L20.7809 8.96827C25.7621 7.77482 30.7676 10.8281 31.9918 15.7938L32.973 15.5519ZM20.5455 7.98556C15.0237 9.30853 11.6113 14.8401 12.8961 20.3621L13.8803 20.1331C12.7214 15.1519 15.7997 10.1617 20.7809 8.96827L20.5455 7.98556ZM13.5048 20.7392L13.5051 20.7392L13.2713 19.7561L13.271 19.7561L13.5048 20.7392ZM16.0256 29.088L13.8793 20.13L12.8966 20.3654L15.0428 29.3235L16.0256 29.088ZM15.4182 28.714L15.4165 28.7144L15.6519 29.6971L15.6537 29.6967L15.4182 28.714ZM15.0469 29.3321C16.4551 34.7651 21.9626 38.0903 27.4437 36.7771L27.2083 35.7944C22.2638 36.979 17.2954 33.9793 16.0251 29.0785L15.0469 29.3321ZM27.4437 36.7771C32.9248 35.4639 36.3274 30.0039 35.1207 24.5226L34.1339 24.7398C35.2223 29.6842 32.1527 34.6098 27.2083 35.7944L27.4437 36.7771ZM34.511 24.1395L34.5094 24.1399L34.7452 25.1225L34.7467 25.1221L34.511 24.1395ZM34.105 24.6129L34.1375 24.7485L35.1202 24.5131L35.0877 24.3775L34.105 24.6129Z" fill="black" mask="url(#path-9-inside-1_19_1888)"/>
<path d="M34.1211 24.5627C35.3197 29.5653 32.2359 34.5923 27.2333 35.7909C24.2892 36.4963 21.3367 35.7185 19.161 33.9393C16.9894 31.9327 16.4842 25.4274 16.0032 22.3515C17.7716 26.3305 22.2715 26.6394 26.5506 25.8885C30.1505 25.2568 33.0303 25.1305 33.0303 20.2042C33.2685 20.5347 33.9118 23.6889 34.1211 24.5627Z" fill="#F9C9B6"/>
</g>
<path d="M22.6736 27.8527C22.9894 30 26.5894 31.0106 29.8736 28.5474" stroke="black" stroke-width="0.505263"/>
<path d="M27.6633 16.7008C28.3791 16.3639 30.0633 16.0566 31.0739 17.5218" stroke="black" stroke-width="0.505263" stroke-linecap="round"/>
<path d="M18.1365 19.8974C18.398 19.1508 19.3595 17.7343 21.1128 18.0408" stroke="black" stroke-width="0.505263" stroke-linecap="round"/>
<path d="M23.089 6.12487L23.0986 6.1259L23.1083 6.12618C26.4771 6.22526 29.0958 7.5659 30.9491 9.20199C32.7246 10.7694 33.7848 12.5966 34.1305 13.8419C33.6177 14.1346 32.7392 14.3865 31.6187 14.593C30.3966 14.8184 28.9291 14.9829 27.4318 15.1002C24.4373 15.3348 21.3447 15.3788 19.9002 15.3474L19.1331 15.3307L19.7402 15.7999C20.0557 16.0437 20.4756 16.2133 20.9198 16.3326C21.3672 16.4528 21.8569 16.5265 22.3259 16.5684C22.8089 16.6116 23.2799 16.6218 23.67 16.6118C22.3327 17.6428 20.6306 18.4355 18.9523 19.0231C17.0138 19.7018 15.1287 20.0994 13.9212 20.2763L13.6497 20.3161L13.7117 20.5834C14.1346 22.406 14.9119 25.5919 15.4332 27.7288C15.6645 28.6768 15.8454 29.4183 15.9226 29.7427C16.0596 30.3179 16.4908 31.1379 16.983 31.8936C17.4368 32.5905 17.9663 33.2691 18.4131 33.6867L17.4231 37.7052H13.6891C14.7422 36.0994 14.9645 34.2439 14.7498 32.2759C14.5173 30.1457 13.7694 27.8542 12.981 25.56C12.9034 25.3341 12.8254 25.1082 12.7474 24.8824C12.0294 22.8034 11.3134 20.7301 10.9255 18.743C10.4959 16.5421 10.4768 14.4823 11.2834 12.6712C12.5893 9.73891 14.9044 8.03616 17.2201 7.0978C19.5412 6.15724 21.8457 5.99239 23.089 6.12487Z" fill="white" stroke="black" stroke-width="0.505263"/>
<ellipse cx="21.1725" cy="21.1803" rx="1.13684" ry="1.26316" transform="rotate(-6.77646 21.1725 21.1803)" fill="black"/>
<ellipse cx="29.2605" cy="19.9167" rx="1.13684" ry="1.26316" transform="rotate(-6.27568 29.2605 19.9167)" fill="black"/>
<circle cx="29.6208" cy="20.0842" r="3.28421" stroke="black" stroke-width="0.505263"/>
<circle cx="21.1577" cy="21.221" r="3.28421" stroke="black" stroke-width="0.505263"/>
<path d="M26.4629 20.9684C26.4629 20.7004 26.3565 20.4434 26.167 20.2539C25.9775 20.0644 25.7204 19.9579 25.4524 19.9579C25.1844 19.9579 24.9274 20.0644 24.7379 20.2539C24.5484 20.4434 24.4419 20.7004 24.4419 20.9684" stroke="black" stroke-width="0.505263"/>
<path d="M17.9367 21.4737L14.1472 22.1684" stroke="black" stroke-width="0.505263"/>
<path d="M25.7034 21.8313C25.9496 23.5825 27.0185 24.8354 27.0185 24.8354C27.0185 24.8354 26.6862 25.6475 25.4002 25.5731" stroke="black" stroke-width="0.505263"/>
<path d="M16.48 27.4246L16.5475 27.3519V27.2527V23.021V22.8796L16.427 22.8057C15.9553 22.5163 15.3818 22.3579 14.7892 22.3579C14.0767 22.3579 13.4097 22.5786 12.9346 23.0268C12.4541 23.4799 12.1949 24.1424 12.2637 24.9684C12.3308 25.7732 12.601 26.3656 13.0491 26.7592C13.0123 26.8854 13.0015 27.0214 13.0185 27.1646C13.0677 27.5775 13.2764 27.8749 13.5989 28.0582C13.9064 28.233 14.2998 28.2947 14.7189 28.2947C15.411 28.2947 16.0179 27.9225 16.48 27.4246Z" stroke="black" stroke-width="0.505263"/>
<path fill-rule="evenodd" clip-rule="evenodd" d="M17.3018 25.0086C17.3108 24.9263 17.3155 24.8426 17.3155 24.7579C17.3155 23.4673 16.1146 22.6105 14.7892 22.6105C13.4637 22.6105 12.3892 23.4316 12.5155 24.9474C12.5858 25.7908 12.8876 26.3459 13.3556 26.6801C13.2812 26.8094 13.2487 26.9613 13.2694 27.1348C13.3488 27.8019 13.9184 28.0421 14.7189 28.0421C16.1216 28.0421 17.2315 26.2679 17.3018 25.0086Z" fill="#F9C9B6"/>
<path d="M15.3475 23.6843C14.8422 23.4527 13.7306 23.3306 13.3264 24.6948" stroke="black" stroke-width="0.505263"/>
<path d="M14.0212 23.7474C14.2949 23.979 14.817 24.6947 14.716 25.7053" stroke="black" stroke-width="0.505263"/>
<circle cx="14.5263" cy="27.2842" r="0.505263" fill="#F4D150"/>
<circle cx="14.6527" cy="27.1579" r="0.126316" fill="#FFEDEF"/>
<path d="M28.996 41.741L29.0137 41.7451L29.0318 41.7466C34.8581 42.2271 38.3519 44.8151 40.8875 48.379H6.363C8.42191 44.6727 11.3504 42.3136 16.0982 41.2311C18.1209 40.7699 20.4773 40.5399 23.242 40.5399C24.4364 40.5399 25.3658 40.7221 26.2478 40.9625C26.5746 41.0516 26.903 41.1514 27.239 41.2535C27.795 41.4224 28.3718 41.5977 28.996 41.741Z" fill="#77311D" stroke="black" stroke-width="0.505263"/>
<path d="M14.6437 41.5051L15.7999 39.0297C15.8275 38.9706 15.8961 38.9424 15.9577 38.9642C20.7484 40.66 25.1066 40.5406 29.1455 39.4163C29.1963 39.4022 29.2506 39.4209 29.2818 39.4635L31.0416 41.8701C31.09 41.9363 31.0654 42.0295 30.9891 42.0595C26.744 43.7264 18.7783 43.4431 14.7049 41.6722C14.6403 41.6441 14.6139 41.5689 14.6437 41.5051Z" fill="white" stroke="black" stroke-width="0.505263"/>
</g>
<defs>
<clipPath id="clip0_19_1888">
<rect width="25.2632" height="40.4211" fill="white" transform="translate(11.3684 5.43161)"/>
</clipPath>
</defs>
</svg>
