<svg width="36" height="36" viewBox="0 0 36 36" fill="none" xmlns="http://www.w3.org/2000/svg">
<path d="M30 12C31.2183 12 32.4077 11.6292 33.4102 10.9368C34.4126 10.2444 35.1805 9.26325 35.6117 8.12382C36.043 6.98439 36.1171 5.74067 35.8243 4.55807C35.5315 3.37547 34.8857 2.31002 33.9726 1.5034C33.0596 0.696787 31.9227 0.187231 30.713 0.0424962C29.5033 -0.102239 28.2782 0.124706 27.2007 0.693151C26.1231 1.2616 25.2441 2.1446 24.6806 3.22475C24.1171 4.3049 23.8957 5.531 24.046 6.74001L10.166 13.68C9.31844 12.8627 8.24917 12.3128 7.09137 12.0989C5.93356 11.8849 4.7384 12.0164 3.65475 12.4768C2.5711 12.9372 1.64688 13.7063 0.997196 14.6883C0.347515 15.6702 0.00109863 16.8216 0.00109863 17.999C0.00109863 19.1764 0.347515 20.3278 0.997196 21.3097C1.64688 22.2917 2.5711 23.0608 3.65475 23.5212C4.7384 23.9816 5.93356 24.1131 7.09137 23.8991C8.24917 23.6852 9.31844 23.1353 10.166 22.318L24.046 29.258C23.871 30.6625 24.1981 32.0836 24.9695 33.2702C25.741 34.4569 26.9071 35.3326 28.2617 35.7426C29.6164 36.1526 31.0723 36.0706 32.3723 35.5109C33.6723 34.9513 34.7327 33.9502 35.3659 32.6844C35.9991 31.4186 36.1645 29.9697 35.8329 28.5938C35.5012 27.2179 34.6938 26.0035 33.5533 25.1653C32.4129 24.3271 31.0128 23.919 29.6006 24.0132C28.1884 24.1074 26.855 24.6978 25.836 25.68L11.956 18.74C12.0164 18.2485 12.0164 17.7515 11.956 17.26L25.836 10.32C26.912 11.36 28.38 12 30 12Z" fill="white"/>
</svg>
