<svg width="41" height="63" viewBox="0 0 41 63" fill="none" xmlns="http://www.w3.org/2000/svg">
<path d="M22.7778 53.6617C22.7778 58.6956 17.6756 62.7728 11.3889 62.7728C5.10222 62.7728 0 58.6956 0 53.6617C0 48.6278 5.10222 44.5506 11.3889 44.5506C17.6756 44.5506 22.7778 48.6278 22.7778 53.6617Z" fill="white"/>
<path fill-rule="evenodd" clip-rule="evenodd" d="M22.7777 8.10614V53.6617H18.2222V8.10614H22.7777Z" fill="white"/>
<path d="M18.2222 7.28614C18.2228 6.23339 18.588 5.21335 19.2558 4.39945C19.9235 3.58555 20.8525 3.02803 21.8848 2.8217L35.5515 0.0883604C36.2122 -0.0436902 36.8939 -0.0275603 37.5476 0.135589C38.2012 0.298737 38.8106 0.604843 39.3317 1.03185C39.8528 1.45886 40.2728 1.99614 40.5612 2.60499C40.8497 3.21383 40.9995 3.87908 41 4.55281V12.6617L18.2222 17.2173V7.28614Z" fill="white"/>
</svg>
