<svg width="37" height="36" viewBox="0 0 37 36" fill="none" xmlns="http://www.w3.org/2000/svg">
<path d="M18.7246 35.748C21.1621 35.748 23.4473 35.2852 25.5801 34.3594C27.7246 33.4336 29.6113 32.1562 31.2402 30.5273C32.8809 28.8984 34.1582 27.0117 35.0723 24.8672C35.998 22.7227 36.4609 20.4375 36.4609 18.0117C36.4609 15.5742 35.998 13.2832 35.0723 11.1387C34.1465 8.99414 32.8633 7.10742 31.2227 5.47852C29.5938 3.84961 27.707 2.57227 25.5625 1.64648C23.4297 0.720703 21.1445 0.257812 18.707 0.257812C16.2695 0.257812 13.9785 0.720703 11.834 1.64648C9.70117 2.57227 7.81445 3.84961 6.17383 5.47852C4.54492 7.10742 3.26758 8.99414 2.3418 11.1387C1.42773 13.2832 0.970703 15.5742 0.970703 18.0117C0.970703 20.4375 1.43359 22.7227 2.35938 24.8672C3.28516 27.0117 4.5625 28.8984 6.19141 30.5273C7.82031 32.1562 9.70117 33.4336 11.834 34.3594C13.9785 35.2852 16.2754 35.748 18.7246 35.748ZM15.2969 25.0781C14.875 25.3242 14.459 25.3535 14.0488 25.166C13.6387 24.9785 13.4336 24.6562 13.4336 24.1992V11.8242C13.4336 11.3789 13.6445 11.0625 14.0664 10.875C14.4883 10.6758 14.8984 10.6934 15.2969 10.9277L25.7031 16.9922C26.0781 17.2266 26.2656 17.5723 26.2656 18.0293C26.2773 18.4863 26.0898 18.8262 25.7031 19.0488L15.2969 25.0781Z" fill="white"/>
</svg>
