<svg width="20" height="19" viewBox="0 0 20 19" fill="none" xmlns="http://www.w3.org/2000/svg">
<path d="M0.449219 6.75195C0.449219 8.08008 0.797526 9.39193 1.49414 10.6875C2.19076 11.9831 3.17057 13.2461 4.43359 14.4766C5.69661 15.7005 7.17773 16.8659 8.87695 17.9727C9.07227 18.1029 9.27083 18.2168 9.47266 18.3145C9.67448 18.4186 9.84701 18.4707 9.99023 18.4707C10.14 18.4707 10.3125 18.4186 10.5078 18.3145C10.7096 18.2168 10.9115 18.1029 11.1133 17.9727C12.8125 16.8659 14.2936 15.7005 15.5566 14.4766C16.8197 13.2461 17.7995 11.9831 18.4961 10.6875C19.1927 9.39193 19.541 8.08008 19.541 6.75195C19.541 5.86003 19.3978 5.04948 19.1113 4.32031C18.8249 3.58464 18.4277 2.94987 17.9199 2.41602C17.4121 1.88216 16.8229 1.47201 16.1523 1.18555C15.4818 0.899089 14.7624 0.755859 13.9941 0.755859C13.0892 0.755859 12.2982 0.938151 11.6211 1.30273C10.944 1.66732 10.4004 2.14583 9.99023 2.73828C9.5931 2.15234 9.05599 1.67708 8.37891 1.3125C7.70182 0.941406 6.9043 0.755859 5.98633 0.755859C5.22461 0.755859 4.50846 0.899089 3.83789 1.18555C3.16732 1.47201 2.57812 1.88216 2.07031 2.41602C1.5625 2.94987 1.16536 3.58464 0.878906 4.32031C0.592448 5.04948 0.449219 5.86003 0.449219 6.75195ZM2.82227 6.73242C2.82227 6.00326 2.97201 5.36523 3.27148 4.81836C3.57096 4.26497 3.97786 3.83203 4.49219 3.51953C5.00651 3.20703 5.59245 3.05078 6.25 3.05078C6.77734 3.05078 7.22982 3.13867 7.60742 3.31445C7.98503 3.49023 8.30729 3.71484 8.57422 3.98828C8.84115 4.25521 9.06901 4.52539 9.25781 4.79883C9.38802 4.98763 9.50846 5.12109 9.61914 5.19922C9.72982 5.27734 9.85352 5.31641 9.99023 5.31641C10.1335 5.31641 10.2572 5.27734 10.3613 5.19922C10.4655 5.11458 10.5859 4.98112 10.7227 4.79883C10.9245 4.52539 11.1589 4.25521 11.4258 3.98828C11.6927 3.72135 12.0117 3.5 12.3828 3.32422C12.7604 3.14193 13.2129 3.05078 13.7402 3.05078C14.3913 3.05078 14.974 3.20703 15.4883 3.51953C16.0091 3.83203 16.4193 4.26497 16.7188 4.81836C17.0182 5.36523 17.168 6.00326 17.168 6.73242C17.168 7.49414 16.9857 8.27539 16.6211 9.07617C16.263 9.87695 15.765 10.6745 15.127 11.4688C14.4889 12.2565 13.7435 13.0247 12.8906 13.7734C12.0443 14.5221 11.1296 15.222 10.1465 15.873C10.0684 15.9251 10.0163 15.9512 9.99023 15.9512C9.96419 15.9512 9.91536 15.9251 9.84375 15.873C8.86068 15.222 7.94271 14.5221 7.08984 13.7734C6.24349 13.0247 5.5013 12.2565 4.86328 11.4688C4.22526 10.6745 3.72396 9.87695 3.35938 9.07617C3.0013 8.27539 2.82227 7.49414 2.82227 6.73242Z" fill="white"/>
</svg>
